<svg xmlns="http://www.w3.org/2000/svg" viewBox="0 0 387.45 72.7"><defs><style>.cls-1{fill:#ce17f4;}</style></defs><g id="Layer_2" data-name="Layer 2"><g id="Layer_1-2" data-name="Layer 1"><path class="cls-1" d="M87.76,33.27c0,11.32-.09,22.64.06,34,0,2.91-.53,4-3.78,4-11.51.07-11.51.21-11.51-11.27,0-13.66-.22-27.32.13-41,.12-4.75-1-6.86-5.92-5.94a20.34,20.34,0,0,1-3.1,0C64.85,8.85,67.22,5.5,69,1.91c.75-1.47,2.3-1,3.58-1.11C85.29.22,85.3.22,92,11.2c4.83,8,9.62,15.93,14.45,23.87.83,1.36,1.37,3,3.26,4,0-11.49.15-22.74-.09-34-.07-3.57,1-4.39,4.46-4.35,10.86.11,10.86,0,10.86,10.83,0,18.32-.09,36.64.08,55,0,3.53-.61,4.59-4.5,4.86-6.22.44-9.87-1.39-12.94-7.08-5.8-10.74-12.58-20.94-19-31.37Z"/><path class="cls-1" d="M166.46,46c0-.71-.11-.89-.05-1,2-3.82,2.79-9.73,6.24-10.91,5.07-1.76,11.15-.59,16.8-.7,2.08,0,1.85,1.41,1.85,2.74q0,15,0,30c0,1.25.17,2.41-1.42,3.31-13.12,7.41-38.41,2-46.7-10.5-6.31-9.5-7-20.25-5.18-31.16,4.61-28.24,31.89-32,50.42-23.94-.5,1-1.06,2-1.48,3.05-2.36,5.83-5,9.21-12.93,7.88-11.65-2-17.77,4.08-19.51,16A41.22,41.22,0,0,0,154.78,44c1.63,9.09,7.91,14.22,17.09,14.06,3.06-.06,4.73-1,4.12-4.4a7.18,7.18,0,0,1,0-2.49c.87-4.5-1.09-6-5.37-5.28A27.28,27.28,0,0,1,166.46,46Z"/><path class="cls-1" d="M387.45,71.16c-5.54,0-10.15-.11-14.75,0-2.16.08-2.83-1.32-3.67-2.76-3.55-6.16-7.12-12.32-11.1-19.19-3.47,6.08-6.84,11.53-9.73,17.23-1.77,3.5-3.85,5.22-8,4.77-3.94-.43-8-.09-12.28-.09.55-3.73,3-6.3,4.67-9.21,4.7-8.4,9.57-16.71,14.54-25,1.36-2.25,1.52-3.83,0-6.21-6.07-9.48-11.81-19.15-18-29.32,5.95-.92,11.33-.4,16.67-.4,1.81,0,2.21,1.81,3,3,2.8,4.5,5.55,9,8.63,14.06,3-5,5.8-9.69,8.53-14.41,1-1.66,1.91-2.9,4.18-2.82,4.8.16,9.62,0,15.4,0-4.23,7.28-7.35,14.55-12.16,20.44-7.36,9-6.94,16.64,0,25.7C378.76,54.25,382.54,62.64,387.45,71.16Z"/><path class="cls-1" d="M202.49,36c0-10.32.08-20.64,0-30.95,0-2.76.28-4.17,3.67-4.11,11.32.23,22.64.21,34,0,3.34-.05,3.36,1.23,2.73,3.78-2.44,10.07-2.4,10.08-12.56,10.08h-3c-8.77,0-8.55,0-8.85,8.87-.14,4.2.7,6.25,5.36,5.53a49.1,49.1,0,0,1,7.48-.07c7.08,0,7.08,0,7.06,7.15,0,6.94,0,6.82-7.18,7-4.1.09-9.54-1.86-11.93.86-2,2.28-.6,7.58-.69,11.54,0,1.33,0,2.67,0,4,0,12.77-.53,13.12-13.57,11.62-3-.35-2.4-2.16-2.41-3.84C202.47,56.92,202.49,46.43,202.49,36Z"/><path class="cls-1" d="M252.61,35.71c0-10.33.09-20.65-.06-31,0-2.87.47-4,3.75-4,11.78-.09,11.78-.24,11.78,11.5,0,13.65.08,27.3-.06,40.94,0,3,.63,4.4,3.84,4a21.91,21.91,0,0,1,5,0c3.42.34,5.81-.12,5-4.54-.48-2.8,2.11-2.87,3.84-3.64,9.53-4.25,9.64-4.25,9.48,6.19-.09,5.24,2.34,12.26-1,15.21-3,2.59-9.82.79-15,.83-7.49,0-15-.14-22.48.08-3.18.09-4.27-.69-4.2-4.07C252.76,56.68,252.61,46.19,252.61,35.71Z"/><path class="cls-1" d="M304.84,35.75c0-10.32.14-20.63-.09-30.95-.07-3.36,1-4.09,4.2-4.09,11.88,0,11.88-.11,11.88,11.78,0,18.14-.1,36.27.09,54.41,0,3.55-1,4.39-4.42,4.35-11.66-.14-11.66,0-11.66-11.54Z"/><path class="cls-1" d="M60.24,66.85C54.88,50.49,50,34,44.68,17.58,42.86,12,43.3,4.11,38.39,1.58,33.65-.86,26.68,1,20.69,1c-.33,0-.66,0-1,0a2.64,2.64,0,0,0-2.77,1.71c-1.55,3.4-4,6.4-4.9,10.2,6.22.39,6.23.39,4.41,6.18Q13,30,9.52,40.86C6.39,50.8,3.27,60.74,0,71.16H4.44c11.35,0,11.46.06,14.37-11,.67-2.55,1.75-3,4.1-2.94a139.66,139.66,0,0,0,14.47,0c2.84-.2,3.72,1.08,4.39,3.4,1,3.48.66,8.43,3.5,10s7.44.51,11.25.59a4.17,4.17,0,0,1,.5,0C60.65,71.62,61.48,70.64,60.24,66.85ZM34.37,43.61c-10.38,1.32-11.12.56-8.19-9.17,1.28-4.25,2.51-8.52,4.17-14.17,2.16,7.79,3.87,14.15,5.71,20.48C36.57,42.5,36.63,43.32,34.37,43.61Z"/></g></g></svg>